<svg width="25" height="25" viewBox="0 0 25 25" fill="none" xmlns="http://www.w3.org/2000/svg">
<path d="M12.4878 -0.015467C12.5245 -0.015378 12.5611 -0.015289 12.5989 -0.0151973C13.1332 -0.0130123 13.6412 0.00822227 14.1602 0.146276C14.1935 0.154655 14.2268 0.163035 14.2611 0.171668C15.3688 0.452861 16.3651 0.972053 17.2363 1.70878C17.2786 1.74415 17.3209 1.77952 17.3645 1.81597C18.3975 2.70588 19.1156 3.95431 19.4946 5.25187C19.5127 5.31325 19.5127 5.31325 19.5311 5.37588C19.7013 5.98484 19.7451 6.58527 19.7418 7.21415C19.7417 7.25086 19.7416 7.28756 19.7415 7.32538C19.7391 7.8601 19.7194 8.36739 19.5801 8.88651C19.5707 8.92377 19.5612 8.96103 19.5515 8.99943C19.2605 10.1345 18.7349 11.1263 17.9688 12.0115C17.9355 12.0507 17.9023 12.0899 17.8681 12.1303C17.5345 12.5166 17.153 12.8261 16.7481 13.1346C16.874 13.2605 16.9931 13.2942 17.16 13.3573C19.2554 14.1756 21.1762 15.612 22.5098 17.4314C22.5409 17.4731 22.5409 17.4731 22.5726 17.5157C22.8908 17.9425 23.1756 18.3841 23.4375 18.8474C23.4572 18.882 23.4768 18.9165 23.497 18.9521C24.5451 20.8136 25.0269 22.876 25 24.9998C24.3394 24.9998 23.6787 24.9998 22.9981 24.9998C22.9819 24.6775 22.9658 24.3553 22.9492 24.0232C22.9268 23.8144 22.9029 23.6105 22.8699 23.4037C22.8615 23.351 22.8532 23.2982 22.8446 23.2439C22.5762 21.6511 21.9412 20.0788 20.9473 18.7986C20.9049 18.7419 20.8626 18.6851 20.8204 18.6283C20.6274 18.37 20.4321 18.1226 20.1973 17.9004C20.1086 17.8136 20.0295 17.7215 19.9494 17.6267C19.7765 17.4271 19.5876 17.2582 19.3848 17.0896C19.3468 17.0572 19.3089 17.0247 19.2698 16.9912C19.1312 16.8747 18.9904 16.7615 18.8477 16.6502C18.82 16.6285 18.7923 16.6068 18.7637 16.5844C17.5131 15.6186 16.0378 15.0231 14.502 14.6971C14.4623 14.6883 14.4227 14.6795 14.3818 14.6705C11.8468 14.1333 9.04953 14.7752 6.87646 16.1303C6.67702 16.2625 6.48775 16.4059 6.29884 16.5525C6.24214 16.5949 6.18537 16.6372 6.12852 16.6794C5.87026 16.8724 5.62285 17.0677 5.40067 17.3025C5.31384 17.3912 5.22174 17.4703 5.12697 17.5505C4.92732 17.7233 4.75842 17.9122 4.58986 18.115C4.55738 18.153 4.5249 18.1909 4.49144 18.23C4.37491 18.3686 4.26175 18.5094 4.1504 18.6521C4.12869 18.6798 4.10697 18.7075 4.0846 18.7361C3.01581 20.1201 2.36564 21.801 2.10878 23.5227C2.10331 23.5589 2.09785 23.5951 2.09222 23.6324C2.03186 24.0871 2.02497 24.5397 2.00197 24.9998C1.34132 24.9998 0.680678 24.9998 1.41307e-05 24.9998C-0.0620194 21.8361 1.14838 18.7286 3.33928 16.4388C3.78362 15.9783 4.22493 15.5236 4.73634 15.1365C4.76265 15.1162 4.78896 15.096 4.81607 15.0751C5.87018 14.2647 7.01666 13.6658 8.25197 13.1834C8.0938 13.023 7.93217 12.869 7.76369 12.7195C7.59581 12.5692 7.43271 12.4171 7.2754 12.2557C7.24765 12.2301 7.21989 12.2045 7.19129 12.1782C6.3617 11.3965 5.82068 10.2802 5.50539 9.20084C5.49335 9.15992 5.48132 9.11899 5.46892 9.07683C5.29868 8.46785 5.25502 7.86746 5.25819 7.23856C5.25828 7.2019 5.25837 7.16524 5.25846 7.12747C5.26065 6.59317 5.28188 6.08515 5.41994 5.5662C5.42832 5.5329 5.43669 5.4996 5.44533 5.4653C5.72652 4.35762 6.24571 3.36126 6.98244 2.49003C7.01781 2.44773 7.05318 2.40543 7.08963 2.36185C7.97954 1.32886 9.22797 0.610774 10.5255 0.231725C10.5665 0.219692 10.6074 0.207658 10.6495 0.195259C11.2585 0.0250218 11.8589 -0.0186376 12.4878 -0.015467ZM8.44728 3.85721C7.48425 5.06685 7.12384 6.51577 7.29028 8.0468C7.49264 9.36521 8.24129 10.5709 9.27869 11.3968C10.5011 12.2777 11.9415 12.6477 13.4422 12.4174C14.7726 12.1645 15.9899 11.392 16.7816 10.2934C17.5929 9.067 17.9478 7.63505 17.6695 6.1706C17.3632 4.81683 16.5692 3.60772 15.4059 2.83812C13.0849 1.40079 10.2606 1.83369 8.44728 3.85721Z" fill="black"/>
</svg>
